# xmcd
#
# Track frame offsets:
#	150
#	12113
#	23656
#	35229
#	48182
#	59035
#	71245
#	83290
#	94960
#	107080
#	119155
#	129925
#
# Disc length: 1894 seconds
#
# Revision: 0
# Processed by: cddbd v1.5.2PL0 Copyright (c) Steve Scherf et al.
# Submitted via: audiograbber 1.83.01
#
DISCID=a107640c
DTITLE=Hank Williams - Lives Again
DYEAR=1961
DGENRE=Country
TTITLE0=Your Cheatin' Heart
TTITLE1=Settin' The Woods On Fire
TTITLE2=You Win Again
TTITLE3=Hey, Good Lookin'
TTITLE4=Crazy Heart
TTITLE5=Move It On Over
TTITLE6=Cold, Cold Heart
TTITLE7=Kaw-Liga
TTITLE8=I Could Never Be Ashamed Of You
TTITLE9=Half As Much
TTITLE10=My Heart Would Know
TTITLE11=I'm Sorry For You, My Friend
EXTD=I have made this CD from one of my LP's
EXTT0=
EXTT1=
EXTT2=
EXTT3=
EXTT4=
EXTT5=
EXTT6=
EXTT7=
EXTT8=
EXTT9=
EXTT10=
EXTT11=
PLAYORDER=
